<?xml version="1.0" encoding="utf-8"?>
<svg xmlns="http://www.w3.org/2000/svg" viewBox="-292.0231 -114.9066 374.1308 716.9847" width="374.131px" height="716.985px" preserveAspectRatio="none">
	<path style="fill:none;stroke:#ffffff;stroke-width:14;stroke-miterlimit:10;" d="M227.665,897.791 c-12.508-45.964-12.99-95.05-1.98-141.362c9.874-41.531,29.394-80.093,12.025-123.354c-10.991-27.376-30.796-50.893-47.639-74.924 c-10.877-15.52-21.262-32.264-26.48-50.641c-3.116-10.974-8.175-39.24,1.133-48.173c3.955-3.794,9.889-4.419,15.354-4.842 c41.499-3.213,83.64-7.104,122.002-24.523c33.597-15.255,55.946-58.208,67.448-92.031c7.929-23.314,11.12-49.594,1.293-72.174 c-9.827-22.58-35.691-39.266-59.341-32.403c-15.416,4.473-27.092,17.845-32.952,32.789c-5.86,14.944-6.64,31.378-6.156,47.422 c0.223,7.386,0.597,15.224-3.028,21.663c-3.625,6.439-12.996,10.21-18.61,5.406c-2.787-2.385-3.921-6.173-4.42-9.807 c-0.841-6.137,0.296-13.388,5.574-16.643c19.395-11.963,21.574,20.538,26.41,31.559c4.573,10.423,9.064,21.19,15.806,30.443 c16.416,22.529,45.27,22.968,69.717,15.961c35.505-10.176,130.895-66.512,146.149-78.622c3.339-2.651,6.875-6.051,6.707-10.312 c-0.23-5.861-6.988-8.896-12.681-10.308c-18.691-4.636-37.967-6.344-57.153-7.998c-83.335-7.187-167.255-13.661-250.501-5.503 c-16.247,1.592-37.127,1.604-49.423,13.947c-2.826,2.837-4.801,6.805-4.285,10.776c0.523,4.017,3.405,7.272,6.201,10.203 c26.581,27.868,57.913,48.69,88.834,71.1c24.895,18.043,51.277,37.288,79.03,50.723c24.794,12.003,50.574,21.771,75.983,32.357 c18.761,7.817,41.643,17.033,29.441,42.269c-8.231,17.024-21.024,26.38-32.754,40.225c-18.776,22.162-37.202,43.345-44.809,71.727 c-10.879,40.594,15.159,69.035,46.1,91.707c23.02,16.867,48.501,32.832,61.708,58.13c15.962,30.578,9.974,68.895-6.717,99.082 s-42.7,53.948-68.243,77.129" id="object-0" transform="matrix(1, 0, 0, 1, -434.574988165125, -346.7108205960813)" />
</svg>
