<?xml version="1.0" encoding="utf-8"?>
<svg xmlns="http://www.w3.org/2000/svg" viewBox="-1142.8212 -100.116 277.2662 185.3435" width="277.266px" height="185.344px" preserveAspectRatio="none"><g id="object-0" transform="matrix(0.6495480537414551, 0, 0, 0.6495480537414551, -519.0806962114675, -7.866706965367541)"><g id="Capa_1" transform="matrix(1.539532, 0, 0, 1.539532, 799.141369, 12.111047)"><g transform="matrix(1, 0, 0, 1, -1009.928604, -100.115465)"><g><path style="fill: rgb(255, 255, 255);" d="M51.707,185.343c-2.741,0-5.493-1.044-7.593-3.149c-4.194-4.194-4.194-10.981,0-15.175 l74.352-74.347L44.114,18.32c-4.194-4.194-4.194-10.987,0-15.175c4.194-4.194,10.987-4.194,15.18,0l81.934,81.934 c4.194,4.194,4.194,10.987,0,15.175l-81.934,81.939C57.201,184.293,54.454,185.343,51.707,185.343z"/></g></g></g><g id="group-1" transform="matrix(1.28578, 0, 0, 1.28578, 446.476233, 9.751761)" style=""><g transform="matrix(1, 0, 0, 1, -1009.928604, -100.115465)"><g><path style="fill: rgb(255, 255, 255);" d="M51.707,185.343c-2.741,0-5.493-1.044-7.593-3.149c-4.194-4.194-4.194-10.981,0-15.175 l74.352-74.347L44.114,18.32c-4.194-4.194-4.194-10.987,0-15.175c4.194-4.194,10.987-4.194,15.18,0l81.934,81.934 c4.194,4.194,4.194,10.987,0,15.175l-81.934,81.939C57.201,184.293,54.454,185.343,51.707,185.343z"/></g></g></g><g id="group-2" transform="matrix(1.084052, 0, 0, 1.084052, 157.928881, 8.775767)" style=""><g transform="matrix(1, 0, 0, 1, -1009.928604, -100.115465)"><g><path style="fill: rgb(255, 255, 255);" d="M51.707,185.343c-2.741,0-5.493-1.044-7.593-3.149c-4.194-4.194-4.194-10.981,0-15.175 l74.352-74.347L44.114,18.32c-4.194-4.194-4.194-10.987,0-15.175c4.194-4.194,10.987-4.194,15.18,0l81.934,81.934 c4.194,4.194,4.194,10.987,0,15.175l-81.934,81.939C57.201,184.293,54.454,185.343,51.707,185.343z"/></g></g></g><g transform="matrix(1, 0, 0, 1, -1009.928604, -100.115465)"><g><path style="fill: rgb(255, 255, 255);" d="M 59.496 185.343 C 56.985 185.343 54.465 184.387 52.541 182.459 C 48.7 178.617 48.7 172.401 52.541 168.559 L 120.644 100.461 L 52.541 32.359 C 48.7 28.517 48.7 22.295 52.541 18.459 C 56.383 14.618 62.605 14.618 66.445 18.459 L 141.492 93.506 C 145.334 97.348 145.334 103.57 141.492 107.406 L 66.445 182.458 C 64.528 184.381 62.012 185.343 59.496 185.343 Z"/></g></g></g></svg>